<svg version="1.1" xmlns="http://www.w3.org/2000/svg" xmlns:xlink="http://www.w3.org/1999/xlink" width="6.00098" height="7.1582" viewBox="0,0,6.00098,7.1582"><g transform="translate(-316.99951,-172.8418)"><g data-paper-data="{&quot;isPaintingLayer&quot;:true}" fill="#ffffff" fill-rule="nonzero" stroke="none" stroke-width="1" stroke-linecap="butt" stroke-linejoin="miter" stroke-miterlimit="10" stroke-dasharray="" stroke-dashoffset="0" style="mix-blend-mode: normal"><path d="M316.99951,172.8418h2.6416c0.5957,0 1.0498,0.04557 1.3623,0.13672c0.41992,0.1237 0.77962,0.34342 1.0791,0.65918c0.29948,0.31576 0.52734,0.70313 0.68359,1.16211c0.15625,0.45573 0.23438,1.01888 0.23438,1.68945c0,0.58919 -0.07324,1.09701 -0.21973,1.52344c-0.17904,0.52083 -0.43457,0.94238 -0.7666,1.26465c-0.25065,0.24414 -0.58919,0.43457 -1.01562,0.57129c-0.31901,0.10091 -0.74544,0.15137 -1.2793,0.15137h-2.71973zM318.44482,174.05273v4.74121h1.0791c0.40365,0 0.69499,-0.02279 0.87402,-0.06836c0.23438,-0.05859 0.42806,-0.15788 0.58105,-0.29785c0.15625,-0.13997 0.2832,-0.36947 0.38086,-0.68848c0.09766,-0.32227 0.14648,-0.76009 0.14648,-1.31348c0,-0.55339 -0.04883,-0.97819 -0.14648,-1.27441c-0.09766,-0.29622 -0.23437,-0.52734 -0.41016,-0.69336c-0.17578,-0.16602 -0.39876,-0.27832 -0.66895,-0.33691c-0.20182,-0.04557 -0.59733,-0.06836 -1.18652,-0.06836z"></path></g></g></svg>