<svg version="1.1" xmlns="http://www.w3.org/2000/svg" xmlns:xlink="http://www.w3.org/1999/xlink" width="157.24523" height="16.25394" viewBox="0,0,157.24523,16.25394"><g transform="translate(-319.87299,-167.51537)"><g fill="#ffffff" stroke="#000000" stroke-width="0.25402" stroke-miterlimit="10"><path d="M320,180.0071v-12.36472h9.16812v2.09171h-6.67156v2.74116h6.20767v2.08328h-6.20767v3.36529h6.90772v2.08328zM338.83911,180.0071h-2.37004v-4.5714c0,-0.96714 -0.05061,-1.59128 -0.15182,-1.87242c-0.10121,-0.28677 -0.26709,-0.50888 -0.49763,-0.66632c-0.22491,-0.15744 -0.49762,-0.23616 -0.81813,-0.23616c-0.41047,0 -0.77876,0.11246 -1.10489,0.33738c-0.32613,0.22491 -0.55104,0.52292 -0.67475,0.89403c-0.11808,0.37111 -0.17712,1.05711 -0.17712,2.05798v4.05691h-2.37004v-8.95725h2.20135v1.31575c0.78159,-1.01212 1.76559,-1.51818 2.95202,-1.51818c0.52293,0 1.00087,0.09559 1.43383,0.28677c0.43297,0.18555 0.7591,0.42453 0.97839,0.71692c0.22491,0.29239 0.37954,0.62414 0.46388,0.99525c0.08997,0.37111 0.13495,0.90247 0.13495,1.59409zM345.61714,177.1563l2.36161,0.39641c-0.30364,0.86593 -0.7844,1.52662 -1.44227,1.98207c-0.65225,0.44983 -1.47038,0.67474 -2.45439,0.67474c-1.55754,0 -2.71023,-0.50887 -3.45807,-1.52661c-0.59041,-0.81532 -0.88561,-1.84431 -0.88561,-3.08696c0,-1.48444 0.38798,-2.64557 1.16394,-3.48338c0.77596,-0.84343 1.75715,-1.26515 2.94358,-1.26515c1.33262,0 2.3841,0.4414 3.15444,1.32419c0.77033,0.87717 1.13863,2.22385 1.10489,4.04004h-5.93776c0.01687,0.70286 0.20804,1.25109 0.57353,1.6447c0.36549,0.38798 0.82094,0.58197 1.36636,0.58197c0.37111,0 0.68318,-0.10121 0.93621,-0.30364c0.25303,-0.20243 0.44421,-0.52855 0.57354,-0.97838zM345.75209,174.76095c-0.01687,-0.68599 -0.19399,-1.20611 -0.53137,-1.56035c-0.33737,-0.35987 -0.74784,-0.5398 -1.23141,-0.5398c-0.51731,0 -0.94465,0.18837 -1.28202,0.5651c-0.33737,0.37673 -0.50325,0.88842 -0.49762,1.53505zM351.49269,180.0071h-2.37005v-8.95725h2.20136v1.27358c0.37673,-0.60165 0.71411,-0.99806 1.01212,-1.18924c0.30363,-0.19118 0.64663,-0.28677 1.02899,-0.28677c0.53979,0 1.05991,0.14901 1.56035,0.44702l-0.73379,2.06641c-0.39923,-0.25865 -0.77034,-0.38798 -1.11333,-0.38798c-0.33175,0 -0.61289,0.09278 -0.84343,0.27834c-0.23054,0.17993 -0.41328,0.50886 -0.54823,0.98681c-0.12933,0.47795 -0.19399,1.47882 -0.19399,3.00262zM354.91385,180.5975l2.70742,0.32894c0.045,0.31488 0.14902,0.53136 0.31207,0.64945c0.22491,0.16869 0.57916,0.25303 1.06273,0.25303c0.61851,0 1.0824,-0.09278 1.39166,-0.27834c0.20805,-0.1237 0.36549,-0.32331 0.47232,-0.59883c0.0731,-0.19681 0.10965,-0.55948 0.10965,-1.08803v-1.30732c-0.70849,0.96713 -1.60253,1.4507 -2.68212,1.4507c-1.20329,0 -2.15637,-0.50887 -2.85924,-1.52661c-0.55104,-0.80407 -0.82656,-1.80495 -0.82656,-3.00262c0,-1.50131 0.35986,-2.64838 1.07959,-3.44121c0.72535,-0.79283 1.62502,-1.18924 2.69899,-1.18924c1.10771,0 2.02143,0.48638 2.74116,1.45914v-1.25671h2.21822v8.03791c0,1.0571 -0.08715,1.84711 -0.26146,2.37004c-0.17431,0.52293 -0.41891,0.93341 -0.73379,1.23142c-0.31488,0.29801 -0.7366,0.53136 -1.26515,0.70005c-0.52293,0.16869 -1.18643,0.25303 -1.9905,0.25303c-1.51818,0 -2.59496,-0.26147 -3.23034,-0.7844c-0.63539,-0.51731 -0.95308,-1.17518 -0.95308,-1.97363c0,-0.07872 0.00267,-0.17431 0.008,-0.28677zM357.03087,175.34292c0,0.95027 0.18274,1.6475 0.54823,2.09171c0.37111,0.43859 0.82656,0.65788 1.36636,0.65788c0.57915,0 1.06834,-0.22492 1.46757,-0.67475c0.39923,-0.45545 0.59884,-1.12739 0.59884,-2.0158c0,-0.92778 -0.19118,-1.61658 -0.57354,-2.06641c-0.38235,-0.44983 -0.86592,-0.67475 -1.4507,-0.67475c-0.56791,0 -1.03742,0.2221 -1.40853,0.66631c-0.36549,0.43859 -0.54823,1.11052 -0.54823,2.01581zM363.74985,171.04985h2.52186l2.14232,6.35948l2.09172,-6.35948h2.45438l-3.16287,8.61988l-0.5651,1.56035c-0.20805,0.52293 -0.40766,0.92215 -0.59883,1.19767c-0.18556,0.27552 -0.40204,0.49762 -0.64945,0.66631c-0.24178,0.17431 -0.5426,0.30926 -0.90247,0.40485c-0.35424,0.09559 -0.75628,0.14339 -1.20611,0.14339c-0.45545,0 -0.90247,-0.0478 -1.34106,-0.14339l-0.21086,-1.85555c0.37111,0.0731 0.70568,0.10965 1.00369,0.10965c0.55104,0 0.9587,-0.16306 1.22298,-0.48919c0.26427,-0.32051 0.4667,-0.73098 0.60727,-1.23142zM377.98183,180.0071v-12.36472h5.25459c1.32138,0 2.28008,0.11246 2.8761,0.33737c0.60165,0.21929 1.08241,0.6129 1.44227,1.18081c0.35987,0.56791 0.5398,1.21735 0.5398,1.94833c0,0.92777 -0.27271,1.6953 -0.81813,2.30257c-0.54542,0.60165 -1.36074,0.98119 -2.44595,1.13863c0.53979,0.31488 0.984,0.66069 1.33262,1.03742c0.35424,0.37673 0.82937,1.04586 1.4254,2.00737l1.50975,2.41222h-2.98576l-1.80494,-2.69055c-0.64101,-0.96151 -1.07959,-1.56597 -1.31576,-1.81338c-0.23616,-0.25303 -0.48638,-0.42452 -0.75065,-0.51449c-0.26427,-0.09559 -0.68318,-0.14339 -1.25672,-0.14339h-0.50606v5.16181zM380.47839,172.87166h1.84712c1.19767,0 1.94552,-0.05061 2.24353,-0.15182c0.29801,-0.10121 0.53136,-0.27552 0.70005,-0.52293c0.16869,-0.24741 0.25303,-0.55666 0.25303,-0.92777c0,-0.41609 -0.11246,-0.75066 -0.33737,-1.00369c-0.21929,-0.25865 -0.53136,-0.42172 -0.93621,-0.48919c-0.20243,-0.02813 -0.8097,-0.0422 -1.82182,-0.0422h-1.94833zM394.80514,177.1563l2.36161,0.39641c-0.30363,0.86593 -0.78439,1.52662 -1.44227,1.98207c-0.65225,0.44983 -1.47038,0.67474 -2.45439,0.67474c-1.55754,0 -2.71023,-0.50887 -3.45807,-1.52661c-0.59041,-0.81532 -0.88561,-1.84431 -0.88561,-3.08696c0,-1.48444 0.38798,-2.64557 1.16394,-3.48338c0.77596,-0.84343 1.75715,-1.26515 2.94358,-1.26515c1.33263,0 2.38411,0.4414 3.15444,1.32419c0.77033,0.87717 1.13863,2.22385 1.1049,4.04004h-5.93777c0.01687,0.70286 0.20805,1.25109 0.57354,1.6447c0.36549,0.38798 0.82094,0.58197 1.36636,0.58197c0.37111,0 0.68318,-0.10121 0.93621,-0.30364c0.25303,-0.20243 0.4442,-0.52855 0.57353,-0.97838zM394.94009,174.76095c-0.01687,-0.68599 -0.19399,-1.20611 -0.53136,-1.56035c-0.33737,-0.35987 -0.74784,-0.5398 -1.23141,-0.5398c-0.51731,0 -0.94465,0.18837 -1.28202,0.5651c-0.33737,0.37673 -0.50325,0.88842 -0.49763,1.53505zM398.19257,180.5975l2.70742,0.32894c0.045,0.31488 0.14902,0.53136 0.31207,0.64945c0.22491,0.16869 0.57915,0.25303 1.06272,0.25303c0.61852,0 1.08241,-0.09278 1.39167,-0.27834c0.20805,-0.1237 0.36549,-0.32331 0.47232,-0.59883c0.07309,-0.19681 0.10964,-0.55948 0.10964,-1.08803v-1.30732c-0.70848,0.96713 -1.60252,1.4507 -2.68211,1.4507c-1.2033,0 -2.15638,-0.50887 -2.85924,-1.52661c-0.55104,-0.80407 -0.82656,-1.80495 -0.82656,-3.00262c0,-1.50131 0.35986,-2.64838 1.07959,-3.44121c0.72535,-0.79283 1.62502,-1.18924 2.69899,-1.18924c1.10771,0 2.02142,0.48638 2.74115,1.45914v-1.25671h2.21823v8.03791c0,1.0571 -0.08715,1.84711 -0.26146,2.37004c-0.17431,0.52293 -0.41891,0.93341 -0.73379,1.23142c-0.31488,0.29801 -0.7366,0.53136 -1.26515,0.70005c-0.52293,0.16869 -1.18643,0.25303 -1.9905,0.25303c-1.51818,0 -2.59496,-0.26147 -3.23035,-0.7844c-0.63539,-0.51731 -0.95308,-1.17518 -0.95308,-1.97363c0,-0.07872 0.00267,-0.17431 0.008,-0.28677zM400.30958,175.34292c0,0.95027 0.18275,1.6475 0.54824,2.09171c0.37111,0.43859 0.82656,0.65788 1.36636,0.65788c0.57915,0 1.06834,-0.22492 1.46757,-0.67475c0.39923,-0.45545 0.59884,-1.12739 0.59884,-2.0158c0,-0.92778 -0.19118,-1.61658 -0.57354,-2.06641c-0.38235,-0.44983 -0.86592,-0.67475 -1.4507,-0.67475c-0.56791,0 -1.03742,0.2221 -1.40853,0.66631c-0.36549,0.43859 -0.54824,1.11052 -0.54824,2.01581zM413.33744,177.1563l2.36161,0.39641c-0.30363,0.86593 -0.78439,1.52662 -1.44227,1.98207c-0.65225,0.44983 -1.47038,0.67474 -2.45438,0.67474c-1.55754,0 -2.71023,-0.50887 -3.45808,-1.52661c-0.5904,-0.81532 -0.8856,-1.84431 -0.8856,-3.08696c0,-1.48444 0.38798,-2.64557 1.16393,-3.48338c0.77596,-0.84343 1.75715,-1.26515 2.94358,-1.26515c1.33263,0 2.38411,0.4414 3.15444,1.32419c0.77034,0.87717 1.13864,2.22385 1.1049,4.04004h-5.93777c0.01687,0.70286 0.20805,1.25109 0.57354,1.6447c0.36549,0.38798 0.82094,0.58197 1.36636,0.58197c0.37111,0 0.68318,-0.10121 0.93621,-0.30364c0.25303,-0.20243 0.4442,-0.52855 0.57353,-0.97838zM413.47239,174.76095c-0.01687,-0.68599 -0.19399,-1.20611 -0.53136,-1.56035c-0.33737,-0.35987 -0.74784,-0.5398 -1.23141,-0.5398c-0.51731,0 -0.94465,0.18837 -1.28202,0.5651c-0.33737,0.37673 -0.50325,0.88842 -0.49762,1.53505zM425.09172,180.0071h-2.37005v-4.5714c0,-0.96714 -0.05061,-1.59128 -0.15182,-1.87242c-0.10121,-0.28677 -0.26709,-0.50888 -0.49762,-0.66632c-0.22492,-0.15744 -0.49763,-0.23616 -0.81813,-0.23616c-0.41047,0 -0.77877,0.11246 -1.1049,0.33738c-0.32613,0.22491 -0.55104,0.52292 -0.67475,0.89403c-0.11808,0.37111 -0.17712,1.05711 -0.17712,2.05798v4.05691h-2.37004v-8.95725h2.20136v1.31575c0.78158,-1.01212 1.76558,-1.51818 2.95201,-1.51818c0.52293,0 1.00087,0.09559 1.43384,0.28677c0.43296,0.18555 0.75909,0.42453 0.97838,0.71692c0.22491,0.29239 0.37954,0.62414 0.46389,0.99525c0.08997,0.37111 0.13495,0.90247 0.13495,1.59409zM431.86974,177.1563l2.36161,0.39641c-0.30363,0.86593 -0.78439,1.52662 -1.44227,1.98207c-0.65225,0.44983 -1.47038,0.67474 -2.45439,0.67474c-1.55754,0 -2.71023,-0.50887 -3.45807,-1.52661c-0.59041,-0.81532 -0.88561,-1.84431 -0.88561,-3.08696c0,-1.48444 0.38798,-2.64557 1.16394,-3.48338c0.77596,-0.84343 1.75715,-1.26515 2.94358,-1.26515c1.33263,0 2.38411,0.4414 3.15444,1.32419c0.77033,0.87717 1.13863,2.22385 1.10489,4.04004h-5.93776c0.01687,0.70286 0.20804,1.25109 0.57353,1.6447c0.36549,0.38798 0.82094,0.58197 1.36636,0.58197c0.37111,0 0.68318,-0.10121 0.93621,-0.30364c0.25303,-0.20243 0.44421,-0.52855 0.57354,-0.97838zM432.00469,174.76095c-0.01687,-0.68599 -0.19399,-1.20611 -0.53136,-1.56035c-0.33737,-0.35987 -0.74785,-0.5398 -1.23142,-0.5398c-0.5173,0 -0.94464,0.18837 -1.28201,0.5651c-0.33737,0.37673 -0.50325,0.88842 -0.49763,1.53505zM437.74529,180.0071h-2.37004v-8.95725h2.20136v1.27358c0.37673,-0.60165 0.71411,-0.99806 1.01212,-1.18924c0.30363,-0.19118 0.64663,-0.28677 1.02898,-0.28677c0.5398,0 1.05992,0.14901 1.56035,0.44702l-0.73378,2.06641c-0.39923,-0.25865 -0.77034,-0.38798 -1.11333,-0.38798c-0.33175,0 -0.6129,0.09278 -0.84344,0.27834c-0.23053,0.17993 -0.41328,0.50886 -0.54823,0.98681c-0.12933,0.47795 -0.19399,1.47882 -0.19399,3.00262zM443.15695,173.78257l-2.15075,-0.38798c0.24179,-0.86593 0.65788,-1.50694 1.24828,-1.92303c0.59041,-0.41609 1.46758,-0.62414 2.63151,-0.62414c1.0571,0 1.8443,0.12652 2.36161,0.37955c0.51731,0.24741 0.87998,0.5651 1.08803,0.95308c0.21367,0.38235 0.3205,1.08802 0.3205,2.11701l-0.0253,2.76646c0,0.78721 0.03655,1.36918 0.10965,1.74591c0.07872,0.37111 0.2221,0.77033 0.43015,1.19767h-2.34474c-0.06187,-0.15744 -0.13778,-0.39079 -0.22773,-0.70005c-0.03933,-0.14057 -0.06743,-0.23335 -0.0843,-0.27833c-0.40485,0.3936 -0.83782,0.6888 -1.29889,0.8856c-0.46108,0.1968 -0.95308,0.2952 -1.47601,0.2952c-0.92215,0 -1.65032,-0.25022 -2.18449,-0.75065c-0.52855,-0.50044 -0.79282,-1.13301 -0.79282,-1.89772c0,-0.50606 0.12089,-0.95589 0.36267,-1.3495c0.24179,-0.39922 0.57916,-0.70285 1.01212,-0.9109c0.43859,-0.21367 1.06835,-0.39923 1.88929,-0.55667c1.10771,-0.20805 1.87523,-0.40204 2.30257,-0.58197v-0.23616c0,-0.45545 -0.11246,-0.77877 -0.33737,-0.96995c-0.22492,-0.1968 -0.64945,-0.2952 -1.27359,-0.2952c-0.42171,0 -0.75065,0.08434 -0.98681,0.25303c-0.23616,0.16307 -0.42734,0.45265 -0.57354,0.86874zM446.32826,175.70559c-0.30363,0.10121 -0.78439,0.22211 -1.44227,0.36268c-0.65788,0.14057 -1.08803,0.27833 -1.29045,0.41328c-0.30926,0.21929 -0.46389,0.49763 -0.46389,0.835c0,0.33175 0.1237,0.61852 0.37111,0.8603c0.24741,0.24179 0.56229,0.36268 0.94465,0.36268c0.42733,0 0.83499,-0.14057 1.22297,-0.42172c0.28677,-0.21367 0.47513,-0.47513 0.5651,-0.78439c0.06187,-0.20243 0.0928,-0.58759 0.0928,-1.1555zM454.28709,171.04985v1.88929h-1.61939v3.60989c0,0.73097 0.01407,1.15831 0.0422,1.28201c0.03373,0.11809 0.10402,0.21649 0.21086,0.29521c0.11246,0.07872 0.24741,0.11808 0.40485,0.11808c0.21929,0 0.53699,-0.07591 0.95308,-0.22773l0.20242,1.83868c-0.55104,0.23616 -1.17518,0.35424 -1.87242,0.35424c-0.42734,0 -0.81251,-0.07028 -1.1555,-0.21085c-0.34299,-0.1462 -0.59602,-0.33176 -0.75909,-0.55667c-0.15744,-0.23054 -0.26709,-0.5398 -0.32894,-0.92778c-0.0506,-0.27552 -0.0759,-0.83218 -0.0759,-1.66999v-3.90509h-1.08803v-1.88929h1.08803v-1.77965l2.37848,-1.38323v3.16288zM455.11891,169.8353v-2.19292h2.37004v2.19292zM455.11891,180.0071v-8.95725h2.37004v8.95725zM458.55694,175.40196c0,-0.78721 0.19399,-1.54911 0.58197,-2.2857c0.38798,-0.7366 0.93621,-1.29889 1.6447,-1.68687c0.7141,-0.38798 1.50974,-0.58197 2.38691,-0.58197c1.35511,0 2.46563,0.4414 3.33156,1.32419c0.86592,0.87717 1.29888,1.98769 1.29888,3.33156c0,1.35511 -0.43858,2.47969 -1.31575,3.37373c-0.87155,0.88841 -1.97082,1.33262 -3.29782,1.33262c-0.82094,0 -1.60533,-0.18555 -2.35318,-0.55666c-0.74222,-0.37111 -1.30732,-0.91372 -1.6953,-1.62783c-0.38798,-0.71973 -0.58197,-1.59408 -0.58197,-2.62307zM460.98603,175.52847c0,0.88842 0.21086,1.56879 0.63257,2.04111c0.42172,0.47232 0.94184,0.70848 1.56035,0.70848c0.61852,0 1.13583,-0.23616 1.55192,-0.70848c0.42171,-0.47232 0.63257,-1.15831 0.63257,-2.05798c0,-0.87717 -0.21086,-1.55191 -0.63257,-2.02423c-0.41609,-0.47233 -0.9334,-0.70849 -1.55192,-0.70849c-0.61851,0 -1.13863,0.23616 -1.56035,0.70849c-0.42171,0.47232 -0.63257,1.15269 -0.63257,2.0411zM476.99121,180.0071h-2.37004v-4.5714c0,-0.96714 -0.05061,-1.59128 -0.15182,-1.87242c-0.10121,-0.28677 -0.26709,-0.50888 -0.49763,-0.66632c-0.22491,-0.15744 -0.49762,-0.23616 -0.81813,-0.23616c-0.41047,0 -0.77876,0.11246 -1.10489,0.33738c-0.32613,0.22491 -0.55104,0.52292 -0.67475,0.89403c-0.11808,0.37111 -0.17712,1.05711 -0.17712,2.05798v4.05691h-2.37004v-8.95725h2.20135v1.31575c0.78159,-1.01212 1.76559,-1.51818 2.95202,-1.51818c0.52293,0 1.00087,0.09559 1.43383,0.28677c0.43297,0.18555 0.7591,0.42453 0.97839,0.71692c0.22491,0.29239 0.37954,0.62414 0.46388,0.99525c0.08997,0.37111 0.13495,0.90247 0.13495,1.59409z"></path></g></g></svg>